<svg width="200" height="200" viewBox="-6 -6 212 217" fill="none" xmlns="http://www.w3.org/2000/svg">
  <defs>
    <linearGradient id="flowerStemGrad" x1="50%" y1="100%" x2="50%" y2="0%">
      <stop offset="0%" stop-color="#5A7A56" />
      <stop offset="50%" stop-color="#4A6A46" />
      <stop offset="100%" stop-color="#3B5B38" />
    </linearGradient>
    <radialGradient id="flowerCenterGrad" cx="50%" cy="50%" r="50%">
      <stop offset="0%" stop-color="#E6AE3E" />
      <stop offset="50%" stop-color="#D49A2C" />
      <stop offset="100%" stop-color="#BE8520" />
    </radialGradient>
    <linearGradient id="flowerPetalGrad" x1="0%" y1="0%" x2="100%" y2="100%">
      <stop offset="0%" stop-color="#E8845A" />
      <stop offset="35%" stop-color="#DC7048" />
      <stop offset="70%" stop-color="#D0603C" />
      <stop offset="100%" stop-color="#BA5030" />
    </linearGradient>
  </defs>

  <!-- Stem & leaves -->
  <path d="M100 200 C99 192 98 180 98 170 C98 158 100 148 100 138 C100 130 100 122 100 115" stroke="url(#flowerStemGrad)" stroke-width="1.5" fill="none" stroke-linecap="round" stroke-linejoin="round"/>
  <path d="M99 168 C94 162 84 157 77 158 C70 160 68 166 72 170 C77 175 90 173 99 169" stroke="url(#flowerStemGrad)" stroke-width="1.5" fill="none" stroke-linecap="round" stroke-linejoin="round"/>
  <path d="M98 168 C91 165 83 162 77 163" stroke="#BE8520" stroke-width="0.7" fill="none" stroke-linecap="round" stroke-linejoin="round"/>
  <path d="M101 148 C106 142 116 137 123 138 C130 140 132 146 128 150 C123 154 110 153 101 149" stroke="url(#flowerStemGrad)" stroke-width="1.5" fill="none" stroke-linecap="round" stroke-linejoin="round"/>
  <path d="M102 148 C109 145 117 143 123 143" stroke="#BE8520" stroke-width="0.7" fill="none" stroke-linecap="round" stroke-linejoin="round"/>

  <!-- Center -->
  <path d="M103 98 C106 94 104 89 100 89 C95 89 92 93 93 98 C94 103 98 107 103 107 C108 107 111 103 111 98 C111 92 107 87 101 86 C94 86 89 91 89 98 C89 106 94 112 101 112" stroke="url(#flowerCenterGrad)" stroke-width="1.5" fill="none" stroke-linecap="round" stroke-linejoin="round"/>
  <path d="M101 112 C109 112 114 106 114 98 C114 90 109 84 101 84 C92 84 86 90 86 98 C86 107 92 114 101 114" stroke="url(#flowerCenterGrad)" stroke-width="1.5" fill="none" stroke-linecap="round" stroke-linejoin="round"/>
  <path d="M97 94 C98 93 99 93 100 94" stroke="#BE8520" stroke-width="0.7" fill="none" stroke-linecap="round" stroke-linejoin="round"/>
  <path d="M103 97 C104 96 104 95 103 94" stroke="#BE8520" stroke-width="0.7" fill="none" stroke-linecap="round" stroke-linejoin="round"/>
  <path d="M100 100 C99 101 98 101 97 100" stroke="#BE8520" stroke-width="0.7" fill="none" stroke-linecap="round" stroke-linejoin="round"/>
  <path d="M96 97 C95 96 95 95 96 94" stroke="#BE8520" stroke-width="0.7" fill="none" stroke-linecap="round" stroke-linejoin="round"/>
  <path d="M100 96 C101 95 101 94 100 93" stroke="#BE8520" stroke-width="0.7" fill="none" stroke-linecap="round" stroke-linejoin="round"/>
  <path d="M103 100 C104 101 103 102 102 101" stroke="#BE8520" stroke-width="0.7" fill="none" stroke-linecap="round" stroke-linejoin="round"/>

  <!-- Petals (12) -->
  <path d="M100 84 C99 76 97 64 97 55 C97 47 99 42 101 42 C103 42 105 47 105 55 C105 64 103 76 101 84" stroke="url(#flowerPetalGrad)" stroke-width="1.2" fill="none" stroke-linecap="round" stroke-linejoin="round"/>
  <path d="M108 86 C113 80 121 70 127 64 C132 60 135 59 137 61 C139 63 137 67 132 72 C126 79 117 87 112 91" stroke="url(#flowerPetalGrad)" stroke-width="1.2" fill="none" stroke-linecap="round" stroke-linejoin="round"/>
  <path d="M113 93 C120 90 131 86 140 85 C147 85 151 87 151 90 C151 93 147 95 140 96 C131 97 120 96 113 95" stroke="url(#flowerPetalGrad)" stroke-width="1.2" fill="none" stroke-linecap="round" stroke-linejoin="round"/>
  <path d="M114 100 C122 100 133 101 142 103 C149 105 153 108 152 111 C151 114 147 114 140 113 C132 111 121 107 114 104" stroke="url(#flowerPetalGrad)" stroke-width="1.2" fill="none" stroke-linecap="round" stroke-linejoin="round"/>
  <path d="M111 108 C116 114 123 124 127 132 C130 139 129 143 127 144 C125 145 122 142 119 135 C116 127 113 118 111 112" stroke="url(#flowerPetalGrad)" stroke-width="1.2" fill="none" stroke-linecap="round" stroke-linejoin="round"/>
  <path d="M102 114 C103 122 105 133 104 142 C103 149 101 154 100 154 C99 154 97 149 96 142 C95 133 97 122 98 114" stroke="url(#flowerPetalGrad)" stroke-width="1.2" fill="none" stroke-linecap="round" stroke-linejoin="round"/>
  <path d="M91 110 C86 116 79 125 75 133 C72 139 73 143 75 144 C77 145 80 142 83 135 C86 127 89 117 91 111" stroke="url(#flowerPetalGrad)" stroke-width="1.2" fill="none" stroke-linecap="round" stroke-linejoin="round"/>
  <path d="M87 103 C79 105 68 108 59 108 C52 108 48 106 48 103 C48 100 52 97 59 96 C68 95 79 97 87 99" stroke="url(#flowerPetalGrad)" stroke-width="1.2" fill="none" stroke-linecap="round" stroke-linejoin="round"/>
  <path d="M88 95 C81 92 70 87 62 84 C55 81 51 79 51 76 C51 73 55 73 62 75 C70 78 81 85 88 89" stroke="url(#flowerPetalGrad)" stroke-width="1.2" fill="none" stroke-linecap="round" stroke-linejoin="round"/>
  <path d="M93 87 C88 80 81 71 76 64 C72 59 70 57 68 59 C66 61 68 66 73 72 C79 79 87 87 92 91" stroke="url(#flowerPetalGrad)" stroke-width="1.2" fill="none" stroke-linecap="round" stroke-linejoin="round"/>
  <path d="M106 85 C108 78 112 68 115 60 C117 53 117 49 115 48 C113 47 111 51 110 58 C108 66 107 77 106 85" stroke="url(#flowerPetalGrad)" stroke-width="1.2" fill="none" stroke-linecap="round" stroke-linejoin="round"/>
  <path d="M94 113 C92 120 88 130 85 138 C83 144 83 148 85 149 C87 150 89 146 90 139 C92 131 93 121 94 113" stroke="url(#flowerPetalGrad)" stroke-width="1.2" fill="none" stroke-linecap="round" stroke-linejoin="round"/>
</svg>
